<svg width="512" height="512" viewBox="0 0 512 512" fill="none" xmlns="http://www.w3.org/2000/svg">
<g clip-path="url(#clip0_184_7)">
<rect width="512" height="512" fill="url(#paint0_linear_184_7)"/>
<rect x="51" y="51" width="409.6" height="409.6" rx="204.8" fill="#FAFAFA" fill-opacity="0.1"/>
<rect y="256" width="512" height="256" fill="#FAFAFA" fill-opacity="0.1"/>
<rect x="256" width="256" height="512" fill="#FAFAFA" fill-opacity="0.1"/>
<path fill-rule="evenodd" clip-rule="evenodd" d="M194.311 349.772C201.696 355.2 212.141 361.427 217.521 363.612C221.542 365.244 224.802 366.451 227.792 367.347C232.869 371.774 238.552 375.278 244.511 377.48C252.198 380.32 251.327 381.994 242.341 381.65C232.068 381.257 226.783 380.034 215.438 375.429C210.057 373.245 199.612 367.017 192.227 361.59C181.58 353.764 176.76 348.814 168.94 337.671C151.025 312.143 147.241 291.033 152.622 246.639C157.001 210.522 155.897 195.53 147.619 178.69C142.304 167.878 132.189 159.961 118.936 156.24L113.862 154.816C112.071 154.313 111.876 151.852 113.566 151.074L116.531 149.707C119.486 148.346 122.593 147.112 125.834 146.01C136.724 150.165 145.051 157.41 149.702 166.872C157.98 183.712 159.084 198.704 154.706 234.822C149.324 279.215 153.108 300.325 171.023 325.853C178.843 336.996 183.663 341.947 194.311 349.772ZM354.474 301.162C362.482 303.075 370.224 303.589 377.401 302.718C379.126 303.392 380.904 304.056 382.742 304.715L389.211 307.037C390.936 307.656 390.989 310.077 389.292 310.77L388.036 311.284C377.713 315.502 365.402 316.088 352.391 312.979C338.643 309.695 330.283 304.051 319.322 290.656C308.208 277.074 300.752 272.641 290.643 273.604C284.652 274.175 280.427 276.904 278.096 281.455C277.55 269.84 282.629 262.749 292.727 261.787C302.836 260.823 310.292 265.256 321.406 278.839C332.367 292.234 340.727 297.878 354.474 301.162ZM387.31 374.633C388.628 374.652 389.87 374.631 391.023 374.567C408.498 373.591 405.625 377.287 379.883 388.902C353.352 400.873 320.356 400.592 303.449 388.252C292.448 380.224 286.148 372.046 271.596 346.906C255.279 318.718 250.401 311.861 243.111 306.863C235.755 301.821 229.081 300.479 220.397 302.296C214.45 303.54 210.31 306.597 208.024 311.347C207.651 299.701 212.541 292.558 222.481 290.478C231.164 288.661 237.839 290.003 245.194 295.045C252.485 300.043 257.363 306.9 273.68 335.089C288.232 360.228 294.532 368.407 305.532 376.435C322.44 388.774 355.436 389.055 381.967 377.084C383.873 376.224 385.653 375.408 387.31 374.633Z" fill="black" fill-opacity="0.05"/>
<path fill-rule="evenodd" clip-rule="evenodd" d="M194.311 349.772C201.696 355.2 212.14 361.427 217.521 363.612C227.578 367.694 232.873 369.118 241.102 369.663C242.565 370.377 244.05 371.016 245.553 371.571C253.239 374.412 252.369 376.085 243.383 375.741C233.11 375.348 227.824 374.126 216.479 369.52C211.099 367.336 200.654 361.109 193.269 355.681C182.621 347.855 177.801 342.905 169.981 331.762C152.066 306.234 148.282 285.124 153.664 240.731C158.042 204.613 156.938 189.621 148.66 172.781C143.345 161.969 133.231 154.052 119.977 150.331L114.904 148.907C113.113 148.404 112.918 145.943 114.607 145.165L117.573 143.798C117.728 143.727 117.883 143.656 118.038 143.585L121.019 144.422C134.273 148.143 144.387 156.06 149.702 166.872C157.98 183.712 159.084 198.704 154.706 234.822C149.324 279.215 153.108 300.325 171.023 325.853C178.843 336.996 183.663 341.947 194.311 349.772ZM354.474 301.162C366.578 304.053 378.077 303.748 387.932 300.295L390.253 301.128C391.978 301.747 392.031 304.168 390.334 304.862L389.077 305.375C378.754 309.593 366.443 310.179 353.432 307.071C339.685 303.786 331.325 298.143 320.364 284.748C309.249 271.165 301.794 266.732 291.685 267.695C284.662 268.365 280.067 271.998 278.103 278.056C278.634 268.462 283.655 262.651 292.727 261.787C302.836 260.823 310.291 265.256 321.406 278.839C332.366 292.234 340.727 297.878 354.474 301.162ZM399.199 368.581C407.903 369.167 402.292 373.352 380.924 382.993C354.394 394.964 321.398 394.683 304.49 382.344C293.49 374.315 287.19 366.137 272.638 340.997C256.321 312.809 251.443 305.952 244.152 300.954C236.797 295.912 230.122 294.57 221.439 296.387C214.491 297.84 210.011 301.767 208.07 307.976C208.683 298.318 213.538 292.349 222.481 290.478C231.164 288.661 237.839 290.003 245.194 295.045C252.485 300.043 257.363 306.9 273.679 335.088C288.231 360.228 294.532 368.406 305.532 376.435C322.44 388.774 355.436 389.055 381.966 377.084C389.81 373.545 395.53 370.742 399.199 368.581Z" fill="black" fill-opacity="0.15"/>
<path d="M217.521 363.612C212.141 361.427 201.696 355.2 194.311 349.772C183.663 341.947 178.843 336.996 171.023 325.853C153.108 300.325 149.324 279.215 154.706 234.822C159.084 198.704 157.98 183.712 149.702 166.872C144.387 156.06 134.273 148.143 121.019 144.422L115.946 142.998C114.155 142.495 113.96 140.034 115.649 139.256L118.615 137.889C139.58 128.229 168.226 125.03 197.588 129.071C224.681 132.799 239.965 138.295 255.981 150.07C272.051 161.884 283.793 176.786 304.453 211.587C337.424 267.126 350.845 280.704 384.826 292.898L391.295 295.219C393.02 295.838 393.073 298.259 391.376 298.953L390.119 299.466C379.797 303.684 367.485 304.27 354.474 301.162C340.727 297.878 332.367 292.234 321.406 278.839C310.292 265.256 302.836 260.823 292.727 261.787C279.314 263.065 274.757 275.156 280.474 294.299C286.853 315.66 304.289 335.499 327.554 347.868C342.704 355.922 376.79 363.66 393.107 362.749C410.581 361.774 407.709 365.469 381.967 377.084C355.436 389.055 322.44 388.774 305.532 376.435C294.532 368.407 288.232 360.228 273.68 335.089C257.363 306.9 252.485 300.043 245.194 295.045C237.839 290.003 231.164 288.661 222.481 290.478C209.422 293.21 205.08 304.681 209.936 323.62C214.751 342.399 229.539 359.359 246.595 365.662C254.282 368.503 253.411 370.176 244.425 369.832C234.152 369.439 228.866 368.217 217.521 363.612Z" fill="#FAFAFA"/>
</g>
<defs>
<linearGradient id="paint0_linear_184_7" x1="256" y1="0" x2="256" y2="512" gradientUnits="userSpaceOnUse">
<stop stop-color="#B669C2"/>
<stop offset="1" stop-color="#7628D9"/>
</linearGradient>
<clipPath id="clip0_184_7">
<rect width="512" height="512" fill="white"/>
</clipPath>
</defs>
</svg>
